<?xml version="1.0" encoding="UTF-8"?>
<svg width="250px" height="250px" viewBox="0 0 250 250" version="1.1" xmlns="http://www.w3.org/2000/svg" xmlns:xlink="http://www.w3.org/1999/xlink">
    <title>Group 3</title>
    <g id="Logos" stroke="none" strokeWidth="1" fill="none" fillRule="evenodd">
        <g id="Group-3">
            <rect id="Rectangle" fill="#432371" x="0" y="0" width="250" height="250" rx="16"></rect>
            <g id="Logos/Primary/Rounded" transform="translate(35, 35)">
                <path d="M137.053161,42.2631462 C136.570777,42.7525297 135.782992,42.7760457 135.252904,42.3168853 C128.428046,36.3697649 121.119536,31.8735986 113.327375,28.8283863 C105.463563,25.747348 97.1832723,24.2829592 88.4865044,24.4352198 C77.3983492,24.632263 67.1341927,27.4893886 57.6940347,33.0065966 C52.8754341,35.8189397 46.0505761,41.5645387 37.2194606,50.2433936 C25.2714808,61.9853737 13.3011097,73.9109623 1.3083474,86.0201592 C0.332088177,87.0053749 -0.0978241397,86.8083318 0.0186104461,85.4290298 C2.49060627,56.4816004 14.8998462,33.6156391 37.2463301,16.8311457 C53.8069108,4.39055805 73.3141822,-1.15351954 95.7681443,0.198912961 C118.051933,1.53343244 137.039727,9.97046166 152.731526,25.5100006 C152.858695,25.6361306 152.930225,25.807824 152.930225,25.9869346 C152.930225,26.1660452 152.858695,26.3377386 152.731526,26.4638686 L137.053161,42.2631462 Z" id="Path" fill="#FAAE7B"></path>
                <path d="M18.115232,130.542954 C16.5120174,132.199907 14.8326724,133.780731 13.0771971,135.285424 C12.9477974,135.39277 12.7781328,135.438366 12.6144422,135.409785 C12.4507517,135.381205 12.3100956,135.281426 12.2308072,135.137641 C8.38846586,128.062001 5.27607982,120.47584 2.89364906,112.379158 C2.69402573,111.707461 2.87932945,110.976541 3.37730042,110.471422 C18.9884914,94.8512747 34.3399437,79.4998224 49.4316574,64.4170653 C57.4925133,56.3651659 63.3769381,51.2644353 67.0849319,49.1148738 C74.1695286,45.0127937 81.9392981,43.0110145 90.3942403,43.1095361 C102.270568,43.2528402 112.852681,47.4713548 122.140578,55.7650799 C122.276041,55.8831384 122.358401,56.0503649 122.369611,56.2279603 C122.378698,56.4055557 122.315752,56.578083 122.194317,56.7055131 L106.166648,73.1496592 C105.757298,73.5703173 105.081271,73.6049854 104.594782,73.2302678 C98.6297481,68.6087104 92.333324,66.9920609 85.7055091,68.3803195 C82.2124715,69.1057965 78.5850863,71.112054 74.8233536,74.3990919 C71.4646636,77.318913 67.6715831,80.9686895 63.4441119,85.3484212 C57.7567302,91.2238895 44.3577964,104.524302 23.2473103,125.249658 C23.2025278,125.294441 21.491835,127.058872 18.115232,130.542954 Z" id="Path" fill="#FEF6F0"></path>
                <path d="M152.986787,92.9524953 C136.838205,109.181685 126.860657,119.127886 123.054142,122.791097 C117.107021,128.532218 110.237381,132.464124 102.44522,134.586816 C94.7515808,136.691595 87.0937676,136.861769 79.4717805,135.097337 C71.312403,133.189601 64.0307631,129.212912 57.6268609,123.16727 C57.4970309,123.048872 57.4221951,122.88157 57.4195926,122.704054 C57.4171232,122.526538 57.4871067,122.35418 57.6134261,122.226837 L73.6142252,106.078256 C74.1007743,105.593997 74.8726997,105.542535 75.4279178,105.957343 C82.9961658,111.671594 90.4479793,113.064331 97.7833582,110.135553 C101.088309,108.818947 105.763606,105.160214 111.809248,99.1593544 C130.223825,80.8612114 148.584664,62.5988944 166.891763,44.3724035 C167.009219,44.2515023 167.177552,44.1944014 167.34648,44.2181569 C167.515408,44.2419124 167.665376,44.3437742 167.751588,44.4933164 C172.07758,52.088434 175.239227,59.7283341 177.236528,67.4130167 C177.394468,67.9946636 177.225316,68.6200116 176.793181,69.0520575 C168.46363,77.4084781 160.528165,85.3752907 152.986787,92.9524953 Z" id="Path" fill="#FEF6F0"></path>
                <path d="M174.979489,120.023537 C172.632884,126.096048 169.972801,131.752082 166.999241,136.991638 L162.606075,143.144758 L159.583254,147.175186 C154.531784,152.817785 149.189228,157.77969 143.555585,162.0609 L139.471418,165.13746 C133.23769,168.935019 126.824831,172.145927 120.232842,174.770183 L114.576808,176.395789 C82.467732,184.205863 53.5606069,177.058571 27.855433,154.953912 C27.3984423,154.560079 27.1279813,153.992337 27.109149,153.389323 C27.0922094,152.78631 27.3285448,152.203535 27.7613896,151.783309 L43.2247983,136.615465 C43.4931846,136.351017 43.9270745,136.351017 44.2055358,136.615465 C56.2341241,147.757359 69.951014,153.870175 85.3562053,154.953912 C101.030092,156.055563 114.975373,152.235613 127.192048,143.494062 C130.246216,141.317631 136.820292,135.249598 146.914275,125.289962 C157.679996,114.667546 168.365109,104.045129 178.969612,93.4227119 C179.721959,92.6614089 180.062306,92.8136695 179.990654,93.8794938 C179.372655,102.809131 177.702267,111.523812 174.979489,120.023537 Z" id="Path" fill="#FAAE7B"></path>
                <circle id="Oval" fill="#FAAE7B" cx="90.0583713" cy="90.4670647" r="13.4347599"></circle>
            </g>
        </g>
    </g>
</svg>
